<?xml version="1.0" standalone="no"?>
<!DOCTYPE svg PUBLIC "-//W3C//DTD SVG 20010904//EN"
 "http://www.w3.org/TR/2001/REC-SVG-20010904/DTD/svg10.dtd">
<svg version="1.0" xmlns="http://www.w3.org/2000/svg"
 width="512.000000pt" height="512.000000pt" viewBox="0 0 512.000000 512.000000"
 preserveAspectRatio="xMidYMid meet">
<metadata>
Created by potrace 1.14, written by Peter Selinger 2001-2017
</metadata>
<g transform="translate(0.000000,512.000000) scale(0.100000,-0.100000)"
fill="#000000" stroke="none">
<path d="M1470 5060 c-8 -5 -16 -18 -16 -30 -1 -11 -3 -22 -4 -25 -3 -6 -3 -8
-13 -50 -8 -35 -17 -87 -32 -175 -8 -45 -18 -135 -19 -157 0 -13 -5 -23 -10
-23 -6 0 -4 -5 4 -10 8 -5 10 -10 5 -10 -6 0 -11 -24 -11 -52 -2 -90 -8 -133
-19 -140 -6 -5 -6 -8 2 -8 7 0 10 -10 7 -26 -3 -19 -1 -24 8 -18 10 5 10 4 1
-6 -6 -7 -9 -19 -6 -28 5 -11 3 -13 -7 -7 -9 6 -11 4 -5 -6 13 -19 14 -49 2
-49 -5 0 -5 -5 1 -13 7 -8 7 -18 2 -27 -5 -8 -6 -19 -2 -24 11 -18 10 -76 -2
-76 -8 0 -8 -2 0 -8 6 -4 11 -31 10 -60 -1 -28 3 -52 8 -52 5 0 3 -7 -4 -15
-7 -8 -8 -15 -3 -15 5 0 8 -20 7 -45 -1 -25 1 -45 6 -45 5 0 5 -13 0 -30 -5
-17 -5 -32 0 -35 5 -3 10 -25 10 -48 1 -45 7 -112 10 -112 1 0 4 -20 6 -45 2
-25 8 -57 14 -72 6 -18 5 -30 -2 -34 -7 -4 -6 -9 2 -14 6 -4 12 -22 12 -41 0
-19 3 -38 6 -44 3 -5 7 -23 9 -40 2 -16 5 -39 7 -50 1 -12 6 -26 10 -33 4 -7
5 -16 1 -21 -3 -5 -1 -12 4 -16 5 -3 8 -14 6 -25 -2 -11 -1 -20 3 -20 4 0 8
-14 9 -32 1 -17 8 -35 14 -38 7 -5 8 -10 1 -14 -6 -3 -28 15 -49 41 -21 27
-44 54 -50 61 -7 7 -13 19 -13 26 0 7 -8 21 -18 32 -15 16 -31 44 -37 64 0 3
-18 40 -38 83 -20 42 -37 83 -37 90 0 7 -6 22 -14 32 -8 11 -12 25 -9 32 3 7
-1 13 -8 13 -7 0 -10 3 -7 6 3 3 -3 28 -13 57 -10 28 -19 60 -19 69 0 10 -5
18 -11 18 -5 0 -8 4 -5 9 4 5 2 20 -3 33 -9 21 -10 21 -12 3 -1 -11 -3 -24 -3
-30 -1 -5 -5 -16 -9 -22 -5 -8 -3 -13 4 -13 7 0 6 -8 -5 -25 -9 -14 -12 -25
-6 -25 6 0 6 -9 1 -22 -4 -13 -7 -31 -6 -40 2 -10 0 -18 -3 -18 -4 0 -7 -22
-7 -50 0 -27 -2 -50 -5 -50 -3 0 -6 -26 -8 -57 -4 -97 -8 -139 -16 -151 -4 -7
-3 -12 3 -12 6 0 6 -11 1 -32 -7 -22 -6 -36 3 -47 9 -12 9 -13 0 -7 -10 5 -13
-14 -13 -83 0 -66 -3 -91 -12 -91 -9 0 -8 -4 2 -10 13 -9 13 -10 0 -10 -12 0
-13 -2 -1 -9 11 -7 11 -9 0 -14 -10 -4 -10 -6 -1 -6 6 -1 12 -6 12 -12 0 -5
-4 -7 -10 -4 -5 3 -10 1 -10 -4 0 -6 6 -11 13 -11 8 0 7 -4 -3 -10 -13 -9 -13
-10 0 -10 13 0 13 -1 0 -10 -13 -9 -13 -10 0 -10 13 0 13 -1 0 -10 -13 -9 -13
-11 0 -20 9 -6 10 -10 3 -10 -18 0 -19 -786 -1 -808 7 -9 8 -13 2 -9 -16 9
-18 -92 -2 -111 10 -12 10 -14 1 -8 -9 5 -13 -1 -13 -21 0 -23 2 -25 11 -13 9
12 9 11 3 -5 -10 -27 -12 -135 -2 -129 4 3 8 1 8 -5 0 -5 -6 -12 -12 -14 -10
-4 -10 -6 0 -6 6 -1 12 -6 12 -12 0 -5 -6 -7 -12 -3 -8 5 -7 0 2 -11 9 -11 10
-16 3 -11 -7 4 -13 2 -13 -3 0 -6 5 -11 11 -11 6 0 7 -5 2 -12 -11 -19 -13
-39 -2 -32 5 3 9 0 9 -5 0 -6 -6 -11 -12 -11 -10 0 -10 -2 -1 -8 9 -6 18 -138
14 -229 0 -13 3 -23 7 -23 4 0 7 -15 8 -32 1 -62 38 -224 55 -243 5 -5 9 -17
9 -27 0 -33 108 -258 123 -258 6 0 7 -3 4 -6 -4 -4 2 -19 13 -34 11 -16 20
-33 20 -40 0 -6 5 -8 10 -5 6 3 10 0 10 -7 0 -7 11 -26 25 -42 14 -16 25 -32
25 -35 0 -10 180 -192 228 -231 24 -19 50 -41 58 -48 8 -7 14 -10 14 -5 0 4 4
3 8 -3 10 -15 154 -104 168 -104 7 0 14 -3 16 -7 3 -7 37 -23 133 -64 50 -21
81 -32 95 -34 8 -1 22 -5 30 -8 8 -4 24 -8 35 -10 11 -2 27 -7 35 -10 21 -8
81 -18 108 -17 12 0 22 -5 22 -11 0 -8 4 -8 13 0 8 6 17 8 21 3 4 -4 28 -7 52
-7 28 -1 49 -6 54 -15 8 -12 10 -11 10 5 0 15 2 17 9 6 6 -9 10 -10 16 -2 5 9
10 9 21 0 11 -9 14 -9 14 1 0 9 7 8 25 -4 21 -14 24 -14 19 -1 -5 13 -2 14 20
5 14 -5 26 -6 26 -2 0 5 20 8 45 7 25 0 45 4 45 10 0 5 5 3 10 -5 5 -8 10 -10
10 -4 0 6 6 11 13 12 60 5 102 14 115 24 13 10 14 10 8 0 -5 -9 -2 -10 16 -3
41 16 113 36 121 33 4 -1 7 2 7 6 0 4 8 8 18 9 29 2 295 134 319 159 7 6 28
22 48 34 19 12 35 27 35 32 0 6 3 9 6 5 4 -3 15 4 25 16 10 12 18 18 19 14 0
-4 45 38 100 94 55 57 98 105 95 107 -2 2 6 14 19 26 33 31 66 82 59 90 -3 3
-1 6 5 6 7 0 22 20 34 45 12 25 26 45 30 45 4 0 8 9 8 20 0 11 3 20 8 20 6 0
44 81 47 100 1 3 9 22 18 44 9 21 17 44 17 52 0 7 5 16 11 20 6 3 9 15 6 25
-3 11 -2 19 3 19 4 0 11 15 14 33 3 17 9 43 12 57 12 57 17 87 18 117 0 17 4
30 7 27 3 -2 6 16 6 39 1 114 3 128 16 121 9 -6 9 -5 0 7 -7 9 -13 48 -14 90
-1 42 -6 77 -13 81 -8 5 -7 8 2 8 8 0 10 5 6 12 -4 7 -9 26 -11 43 -7 57 -11
80 -13 80 -3 0 -11 39 -13 65 -1 14 -5 27 -8 30 -4 3 -10 21 -13 40 -9 48 -11
53 -18 65 -8 13 -22 78 -20 88 2 5 -2 6 -8 2 -5 -3 -10 3 -10 15 0 11 -4 28
-10 38 -5 9 -16 35 -25 57 -9 22 -23 54 -30 70 -8 17 -16 37 -17 45 -2 8 -11
23 -21 34 -10 11 -15 26 -13 32 3 7 -2 15 -10 18 -9 3 -13 10 -10 15 4 5 0 15
-7 23 -7 7 -21 32 -31 56 -11 23 -23 42 -28 42 -5 0 -6 5 -3 10 3 6 1 10 -4
10 -6 0 -11 5 -11 10 0 6 -17 38 -38 73 -21 34 -45 73 -53 86 -8 14 -22 34
-31 45 -10 11 -18 26 -18 33 0 7 -4 13 -10 13 -5 0 -10 5 -10 10 0 6 -9 20
-20 32 -10 12 -17 25 -14 30 3 4 1 8 -4 8 -5 0 -26 26 -48 57 -44 65 -61 88
-86 115 -10 10 -15 18 -10 18 4 0 2 4 -3 8 -6 4 -26 27 -45 52 -19 25 -38 47
-42 48 -5 2 -8 8 -8 12 0 5 -18 28 -39 52 -22 23 -37 46 -34 52 3 5 1 6 -5 2
-7 -4 -12 -3 -12 2 0 4 -22 32 -48 60 -27 29 -47 53 -46 55 2 1 -33 40 -77 86
-43 46 -79 86 -79 88 0 3 -27 31 -60 63 -32 31 -56 60 -53 64 4 3 0 6 -8 6 -8
0 -25 16 -39 34 -14 19 -37 42 -53 53 -15 10 -29 25 -32 34 -3 9 -17 22 -30
29 -14 7 -25 20 -25 27 0 8 -4 11 -10 8 -5 -3 -10 2 -10 11 0 10 -2 15 -5 12
-3 -2 -50 40 -106 94 -55 54 -102 98 -104 98 -2 0 -26 21 -53 48 -27 26 -72
67 -101 92 -29 25 -62 54 -75 65 -12 11 -48 43 -80 70 -32 28 -66 58 -75 68
-8 9 -20 17 -26 17 -6 0 -18 8 -26 18 -9 9 -33 31 -54 47 -21 17 -44 36 -51
42 -10 10 -13 10 -17 0 -3 -11 18 -55 34 -67 3 -3 5 -13 3 -22 -1 -10 1 -18 5
-18 10 0 31 -61 25 -71 -3 -5 -1 -9 5 -9 10 0 27 -38 23 -52 -1 -5 2 -8 6 -8
5 0 15 -22 22 -50 7 -27 18 -50 23 -50 6 0 7 -3 4 -6 -3 -4 -2 -15 4 -26 11
-20 20 -53 21 -75 1 -7 5 -13 10 -13 5 0 6 -4 3 -10 -3 -5 -1 -10 5 -10 6 0 8
-5 5 -10 -4 -6 -2 -17 4 -24 6 -7 12 -25 13 -40 1 -14 6 -26 10 -26 4 0 7 -3
6 -7 -1 -5 4 -28 11 -53 7 -25 15 -52 16 -60 2 -8 4 -15 5 -15 2 0 10 -35 15
-62 2 -12 6 -26 9 -31 3 -5 8 -23 11 -41 5 -32 5 -32 -58 31 -35 35 -61 66
-59 71 2 4 0 7 -5 7 -4 0 -26 27 -48 60 -22 33 -43 60 -47 60 -5 0 -8 7 -8 15
0 8 -4 15 -10 15 -5 0 -10 9 -10 20 0 10 -6 23 -13 27 -7 4 -21 26 -32 48 -11
22 -22 42 -25 45 -6 6 -55 102 -55 110 -1 3 -6 15 -13 26 -6 12 -8 24 -5 28 3
3 2 6 -4 6 -6 0 -14 10 -18 23 -4 12 -8 25 -10 30 -6 18 -7 22 -6 30 1 4 -6
10 -14 13 -8 3 -12 10 -9 15 3 6 1 15 -4 22 -10 13 -26 67 -24 80 1 4 -2 7 -8
7 -5 0 -13 18 -16 40 -4 22 -11 40 -16 40 -6 0 -8 9 -5 20 3 11 1 20 -5 20 -5
0 -6 5 -3 10 3 6 2 10 -2 10 -5 0 -10 12 -11 26 -1 15 -8 34 -15 42 -10 13 -9
14 3 7 9 -5 8 0 -4 13 -11 12 -16 25 -13 29 4 3 2 12 -4 20 -6 7 -9 13 -6 13
3 0 1 15 -5 33 -22 71 -41 156 -40 180 1 20 1 20 -18 7z"/>
</g>
</svg>
